HIERARCHY
ROOT Hips
{
	OFFSET -3.958830 18.904000 13.208200
	CHANNELS 6 Xposition Yposition Zposition Zrotation Yrotation Xrotation 
	JOINT LHipJoint
	{
		OFFSET 0.000000 0.000000 0.000000
		CHANNELS 3 Zrotation Yrotation Xrotation
		JOINT LeftUpLeg
		{
			OFFSET 1.800000 -1.400000 0.085000
			CHANNELS 3 Zrotation Yrotation Xrotation
			JOINT LeftLeg
			{
				OFFSET 2.215000 -6.000000 0.000000
				CHANNELS 3 Zrotation Yrotation Xrotation
				JOINT LeftFoot
				{
					OFFSET 2.500000 -6.900000 0.000000
					CHANNELS 3 Zrotation Yrotation Xrotation
					JOINT LeftToeBase
					{
						OFFSET 0.200000 -0.500000 1.950000
						CHANNELS 3 Zrotation Yrotation Xrotation
						End Site
						{
							OFFSET 0.000000 0.000000 0.000000
						}
					}
				}
			}
		}
	}
	JOINT RHipJoint
	{
		OFFSET 0.000000 0.000000 0.000000
		CHANNELS 3 Zrotation Yrotation Xrotation
		JOINT RightUpLeg
		{
			OFFSET -1.800000 -1.400000 0.085000
			CHANNELS 3 Zrotation Yrotation Xrotation
			JOINT RightLeg
			{
				OFFSET -2.215000 -6.000000 0.000000
				CHANNELS 3 Zrotation Yrotation Xrotation
				JOINT RightFoot
				{
					OFFSET -2.500000 -6.900000 0.000000
					CHANNELS 3 Zrotation Yrotation Xrotation
					JOINT RightToeBase
					{
						OFFSET -0.200000 -0.500000 1.950000
						CHANNELS 3 Zrotation Yrotation Xrotation
						End Site
						{
							OFFSET 0.000000 0.000000 0.000000
						}
					}
				}
			}
		}
	}
	JOINT LowerBack
	{
		OFFSET 0.000000 0.000000 0.000000
		CHANNELS 3 Zrotation Yrotation Xrotation
		JOINT Spine
		{
			OFFSET -0.087000 1.940000 -0.288900
			CHANNELS 3 Zrotation Yrotation Xrotation
			JOINT Spine1
			{
				OFFSET 0.000000 1.950000 0.060000
				CHANNELS 3 Zrotation Yrotation Xrotation
				JOINT Neck
				{
					OFFSET 0.000000 0.000000 0.000000
					CHANNELS 3 Zrotation Yrotation Xrotation
					JOINT Neck1
					{
						OFFSET 0.000000 1.600000 0.340000
						CHANNELS 3 Zrotation Yrotation Xrotation
						JOINT Head
						{
							OFFSET 0.000000 1.667000 -0.240000
							CHANNELS 3 Zrotation Yrotation Xrotation
							End Site
							{
								OFFSET 0.000000 0.000000 0.000000
							}
						}
					}
				}
				JOINT LeftShoulder
				{
					OFFSET 0.000000 0.000000 0.000000
					CHANNELS 3 Zrotation Yrotation Xrotation
					JOINT LeftArm
					{
						OFFSET 2.700000 1.550000 -0.730000
						CHANNELS 3 Zrotation Yrotation Xrotation
						JOINT LeftForeArm
						{
							OFFSET 5.450000 0.000000 0.000000
							CHANNELS 3 Zrotation Yrotation Xrotation
							JOINT LeftHand
							{
								OFFSET 3.450000 0.000000 0.000000
								CHANNELS 3 Zrotation Yrotation Xrotation
								JOINT LeftHandIndex1
								{
									OFFSET 0.750000 0.000000 0.000000
									CHANNELS 3 Zrotation Yrotation Xrotation
									End Site
									{
										OFFSET 0.000000 0.000000 0.000000
									}
								}
							}
						}
					}
				}
				JOINT RightShoulder
				{
					OFFSET 0.000000 0.000000 0.000000
					CHANNELS 3 Zrotation Yrotation Xrotation
					JOINT RightArm
					{
						OFFSET -2.700000 1.550000 -0.730000
						CHANNELS 3 Zrotation Yrotation Xrotation
						JOINT RightForeArm
						{
							OFFSET -5.450000 0.000000 0.000000
							CHANNELS 3 Zrotation Yrotation Xrotation
							JOINT RightHand
							{
								OFFSET -3.450000 0.000000 0.000000
								CHANNELS 3 Zrotation Yrotation Xrotation
								JOINT RightHandIndex1
								{
									OFFSET -0.750000 0.000000 0.000000
									CHANNELS 3 Zrotation Yrotation Xrotation
									End Site
									{
										OFFSET 0.000000 0.000000 0.000000
									}
								}
							}
						}
					}
				}
			}
		}
	}
}
MOTION
Frames: 12
Frame Time: 0.016667
0.562380 17.211630 -1.744070 0.422787 21.151292 -3.435488 -15.329446 13.223165 3.285915 -4.214259 -2.255474 -1.240207 -7.093140 10.186690 35.356497 0.151099 7.390086 2.081225 0.640650 0.043280 0.768700 18.130555 -10.377591 3.502770 5.072849 5.921244 -23.626538 8.994496 -8.922252 34.914255 -0.759632 -4.903478 2.777713 -0.005280 -0.211980 0.159890 -3.624933 -1.846203 -8.364510 10.032698 -3.212530 17.201055 -0.790900 -1.566281 -4.301210 3.729558 4.494020 -6.514716 5.798467 -7.498191 49.304002 -0.536420 -2.573470 -16.455650 -17.716079 8.769948 -0.405616 -50.961695 7.794803 -14.409315 4.796094 -54.087863 -4.413228 -3.228417 2.811339 1.034620 -0.195840 0.196950 0.071550 11.146905 -11.230847 1.491189 59.772756 -7.122963 -16.982814 5.477010 38.502305 0.234002 1.915516 -1.160871 -0.230780 0.109220 -0.185200 -0.540610 
0.515430 17.193010 -1.797640 0.234085 21.843876 -4.739846 -15.370208 13.178498 3.314061 -4.915150 -2.500215 -1.425422 -6.960918 10.276479 36.437964 0.178146 7.519931 2.033976 0.689880 0.108670 0.808030 18.108524 -10.186736 3.615517 3.560998 6.740124 -25.836361 10.778936 -10.537399 38.829093 -0.939603 -5.689430 2.502330 0.035560 -0.233380 0.151300 -3.531522 -2.049949 -8.487050 9.906672 -3.251945 19.526081 -0.191277 -1.464265 -3.659948 3.592650 4.921106 -6.807309 6.382008 -8.273817 49.440002 -0.270910 -2.902420 -17.852800 -17.923004 7.025801 -0.148290 -47.468383 7.558587 -14.114623 7.693345 -57.657449 -6.006349 -3.184563 2.817522 1.043530 -0.211030 0.222550 0.082640 11.732758 -9.670752 1.869069 57.921958 -7.180239 -17.846437 4.042374 43.041775 -0.106481 1.851348 -1.219376 -0.224300 0.131030 -0.216370 -0.543020 
0.463370 17.170230 -1.849350 0.158999 22.474484 -5.815536 -15.421485 13.186769 3.324933 -5.509803 -2.612493 -1.400315 -6.370795 10.190493 37.421179 0.207843 7.598063 2.005002 0.709400 0.146920 0.816870 18.072059 -9.962302 3.763457 1.827645 7.536068 -28.009650 12.617554 -12.176312 42.207397 -1.114216 -6.458814 2.235276 0.055920 -0.247840 0.137070 -3.396961 -2.372400 -8.618940 9.548628 -3.318773 22.021916 0.635628 -1.394910 -3.579605 3.282970 4.856246 -7.193358 5.970758 -8.438280 49.734318 0.316250 -3.266860 -19.016700 -17.997473 5.452771 0.171116 -43.767023 8.091790 -13.782807 10.508272 -59.291895 -7.430776 -3.145844 2.809107 1.049260 -0.232230 0.240580 0.087220 12.460021 -7.803322 2.310626 55.351065 -7.476459 -18.441204 2.132808 46.904270 -0.670558 1.809413 -1.257029 -0.220020 0.147720 -0.230620 -0.536110 
0.407930 17.143940 -1.901880 0.170769 23.056007 -6.959789 -15.460726 13.218626 3.313806 -5.879427 -2.507109 -0.761879 -5.561847 9.985691 38.018346 0.220609 7.641959 1.986559 0.718600 0.163690 0.819680 18.042587 -9.773443 3.899331 -0.040057 8.129670 -29.684134 14.373634 -13.677193 44.697476 -1.272727 -7.119374 2.010717 0.059820 -0.259250 0.140540 -3.293875 -2.662882 -8.720773 9.288022 -3.420108 24.736955 0.975560 -1.406022 -3.435967 2.994622 4.728148 -7.753396 5.489387 -8.554624 50.088354 0.891430 -3.614970 -20.607440 -18.100377 3.489157 0.702417 -39.365688 9.464867 -13.545109 13.004567 -60.987235 -8.882275 -3.114830 2.798576 1.072340 -0.251830 0.263350 0.084830 13.083942 -5.557530 2.935834 53.242378 -7.849864 -19.179682 -0.379197 50.218504 -1.648907 1.761603 -1.264965 -0.215100 0.157880 -0.229270 -0.533920 
0.348950 17.117170 -1.952320 -0.047917 23.503664 -8.032912 -15.482319 13.272930 3.272901 -5.605570 -2.343259 -0.048577 -5.047802 9.940463 38.402297 0.252158 7.681326 1.966177 0.736930 0.194460 0.819030 18.024472 -9.630611 4.013133 -1.577146 8.584357 -30.805997 15.816434 -14.716553 46.070892 -1.384480 -7.545699 1.866187 0.063340 -0.278130 0.142950 -3.236457 -2.899640 -8.781888 9.344185 -3.571164 27.425491 1.131868 -1.403829 -3.485638 2.666487 4.467430 -8.149800 4.878495 -8.314168 50.118926 2.150860 -3.779030 -22.302840 -18.050993 1.943183 1.136053 -35.172955 10.853145 -13.134767 15.791943 -61.744703 -10.296621 -3.076901 2.808212 1.083400 -0.278730 0.284400 0.086870 13.588419 -3.640886 3.353487 50.975278 -7.868344 -19.421315 -3.664849 52.057277 -2.942057 1.735784 -1.263749 -0.194610 0.151410 -0.236720 -0.525050 
0.290510 17.089770 -1.996320 -0.205152 23.959419 -8.658691 -15.515181 13.357354 3.225237 -5.082124 -2.100310 0.587322 -4.637190 9.859638 38.263930 0.251437 7.667136 1.966878 0.736950 0.198110 0.816610 17.988737 -9.539675 4.084872 -2.788848 8.844278 -31.671684 16.495999 -15.023711 46.389249 -1.407311 -7.678635 1.814759 0.062830 -0.288240 0.146610 -3.137849 -3.105393 -8.792025 9.118450 -3.379750 29.508974 1.537880 -1.130829 -3.481348 2.494513 4.699084 -8.608068 5.277998 -8.697768 49.390530 2.474830 -3.927920 -23.062070 -18.020849 0.262273 1.581362 -30.911993 12.272084 -12.510585 17.609099 -62.100229 -11.127821 -3.066369 2.817962 1.086940 -0.285760 0.290480 0.082220 13.814405 -1.874115 3.895573 48.594303 -8.241333 -19.343791 -6.413236 52.592169 -4.001923 1.715410 -1.258954 -0.189300 0.142030 -0.235670 -0.525620 
0.235520 17.065050 -2.037500 -0.805863 24.476223 -9.024050 -15.523879 13.468496 3.152231 -3.925720 -1.965759 0.833632 -4.371760 9.813157 37.975051 0.255749 7.637377 1.982653 0.729900 0.180460 0.820380 17.965848 -9.513193 4.133209 -3.273433 9.021142 -32.301077 16.441603 -14.642340 45.733829 -1.358066 -7.516730 1.854149 0.045360 -0.290330 0.162200 -3.109184 -3.236591 -8.773147 9.757537 -3.442147 31.150269 1.640777 -0.816922 -3.782935 2.377798 4.888435 -9.085003 5.677072 -9.078335 48.108771 2.487210 -4.101580 -23.027380 -17.586423 -1.013966 1.965849 -27.198883 13.431276 -11.618632 17.382610 -61.471614 -10.581106 -3.071333 2.861457 1.078700 -0.284290 0.290150 0.079230 13.401563 -0.516819 4.470810 46.628613 -8.660110 -18.910494 -8.495853 51.904421 -4.601673 1.721185 -1.264025 -0.178020 0.118110 -0.239100 -0.522650 
0.182040 17.036420 -2.072760 -1.075303 24.944546 -8.784347 -15.538041 13.569168 3.091844 -3.071045 -1.758381 0.875471 -4.071817 9.652169 37.291903 0.203703 7.541413 2.011688 0.710640 0.156340 0.795600 17.940885 -9.517516 4.142176 -3.695862 9.046310 -33.039648 15.560515 -13.718950 44.708434 -1.240416 -7.188586 1.950313 0.044910 -0.273500 0.165940 -3.066981 -3.333552 -8.715091 9.897518 -3.226307 32.051547 1.956881 -0.442760 -3.727197 2.204111 5.125831 -9.166876 6.102888 -9.265214 45.774182 2.555950 -4.166870 -22.940080 -17.367106 -1.946626 2.075537 -23.374014 13.912384 -10.455534 16.428259 -60.273606 -9.546329 -3.108586 2.910577 1.063420 -0.264340 0.260820 0.072940 13.408195 0.351894 4.720078 44.433193 -8.991299 -18.363525 -10.553086 51.179931 -5.153851 1.701882 -1.273770 -0.189210 0.106810 -0.218580 -0.526680 
0.130980 17.015610 -2.107400 -1.161690 25.476028 -8.100130 -15.553008 13.701004 3.055501 -2.338668 -1.569077 0.646517 -3.667454 9.343687 36.339654 0.165698 7.347360 2.075344 0.696960 0.148850 0.773170 17.902688 -9.581839 4.094863 -3.891860 8.737234 -33.496234 14.127516 -12.253930 42.507073 -1.065576 -6.568712 2.139604 0.037800 -0.263470 0.178630 -3.016474 -3.423256 -8.631592 9.822587 -3.018549 32.387981 2.440471 -0.148504 -3.652936 2.038233 5.233477 -9.368008 6.302515 -9.351965 43.597671 2.203500 -4.152310 -22.587020 -16.977314 -2.790705 2.344350 -20.412654 14.601094 -9.517485 14.772735 -58.999516 -8.253401 -3.134676 2.979707 1.031420 -0.246130 0.242940 0.071750 13.237993 1.228128 4.979816 42.485335 -9.216621 -17.784872 -13.424568 49.895446 -5.921018 1.703083 -1.287193 -0.176030 0.080970 -0.211570 -0.515530 
0.081080 17.002650 -2.140840 -1.226332 26.248812 -7.054537 -15.547161 13.828346 3.034133 -1.506956 -1.550761 -0.005359 -3.446313 9.053270 35.386508 0.128347 7.150226 2.153358 0.675990 0.127220 0.743830 17.873185 -9.714563 3.999296 -3.801043 8.092445 -33.596906 12.548023 -10.547114 38.970975 -0.847599 -5.703814 2.427238 0.024190 -0.237220 0.182920 -3.031179 -3.435127 -8.534607 10.004977 -3.144156 32.197891 2.769528 -0.144158 -3.452142 1.741066 4.940193 -9.647272 5.747912 -9.241136 41.683410 2.431840 -4.497460 -22.091650 -16.165217 -3.476759 2.708327 -18.852910 15.049886 -8.923608 13.591464 -57.039530 -7.167905 -3.150467 3.013089 1.001360 -0.228320 0.219250 0.080010 12.876599 2.093279 5.248071 40.883274 -9.276167 -17.159693 -15.135665 48.317145 -6.193582 1.715276 -1.296245 -0.172270 0.073100 -0.205770 -0.498750 
0.036290 16.991460 -2.163370 -1.386230 27.067830 -5.625004 -15.527670 13.914242 3.000515 -0.709537 -1.574581 -0.977642 -3.226819 8.702088 34.271404 0.070410 6.909573 2.253940 0.646770 0.101530 0.703190 17.860291 -9.864113 3.914038 -3.415692 7.460700 -33.750040 10.840526 -8.868730 35.004294 -0.630251 -4.799765 2.748603 0.014040 -0.191660 0.178490 -3.094915 -3.350236 -8.432114 10.423907 -3.346780 31.191877 2.938150 -0.251085 -3.107418 1.479599 4.752568 -9.847427 5.489757 -9.100588 39.492855 2.612370 -4.735740 -21.179480 -15.733505 -4.122360 3.074088 -17.773916 15.693389 -8.537561 13.579283 -55.085141 -6.705489 -3.176281 3.021048 0.965240 -0.197070 0.182820 0.094340 12.832765 2.706118 5.418674 39.295241 -9.528643 -16.504426 -15.486582 46.817716 -6.001917 1.724790 -1.312863 -0.181380 0.080470 -0.196540 -0.479610 
-0.000690 16.986090 -2.175430 -1.490599 27.677075 -3.879153 -15.500610 13.956248 2.968309 -0.023374 -1.536589 -2.009059 -3.313483 8.382867 32.608816 0.008619 6.605713 2.369104 0.621560 0.079360 0.658910 17.860140 -10.008771 3.843122 -2.984104 6.866294 -33.866182 9.302453 -7.335071 30.612502 -0.429278 -3.920392 3.061472 0.006770 -0.149720 0.184770 -3.181031 -3.200484 -8.337323 10.922642 -3.517674 29.751722 3.007926 -0.330917 -3.092644 1.236289 4.517263 -9.836754 5.226022 -8.992564 37.193429 2.923580 -5.135380 -19.904200 -15.497151 -4.162210 3.212177 -17.246158 16.066738 -8.133191 14.020623 -53.027113 -6.386581 -3.210143 3.051857 0.914500 -0.163460 0.142470 0.106520 12.962743 2.775269 5.404291 37.717934 -9.834767 -15.752870 -15.512467 45.521699 -5.699435 1.741883 -1.350698 -0.177720 0.068570 -0.185860 -0.455720 
